<svg xmlns="http://www.w3.org/2000/svg" width="788.9" height="791"><rect id="backgroundrect" width="100%" height="100%" x="0" y="0" fill="none" stroke="none"/><style>.st0{fill:#f7a902}.st1{fill:#353533}</style><g class="currentLayer" style=""><title>Layer 1</title><path class="st0" d="M362.5825797268241,2.099626511366006 c8.392726689577103,-4.388521444797515 18.577159076929092,-0.8586237609386445 27.158486366271973,1.6218448817729951 c11.881837785243988,3.434495043754578 18.294258177280426,16.790864658355716 16.596852779388428,28.620792031288147 c-0.5658017992973329,17.07707257866859 -13.013441383838654,36.73001644015312 -31.87350136041641,35.10817155838012 c-23.103573471307755,-0.09540264010429383 -36.399915754795074,-28.334584110975264 -28.572990864515305,-48.46454117298126 c3.86631229519844,-7.155198007822037 10.090132087469101,-12.593148493766783 16.691153079271317,-16.886267298460005 zM175.30218415940698,85.7677418828317 c39.417525351047516,-2.6712739229202267 78.92935100197792,-4.960937285423279 118.44117665290833,-3.24368976354599 c16.40825217962265,0.6678184807300568 33.00510495901108,5.437950485944748 46.3014472424984,15.550630336999895 c19.142960876226425,13.928785455226897 29.138792663812637,38.35186132192612 28.85589176416397,61.916313427686696 c1.5088047981262207,35.01276891827584 -10.844534486532211,68.49909559488296 -23.103573471307755,100.5543826699257 c-26.404083967208862,64.49218471050261 -60.72939312458039,125.45447173714638 -99.58111667633057,183.07766636013986 c-26.59268456697464,38.638069242239 -55.071375131607056,76.51291736364365 -89.86818578839302,108.0911912381649 c-13.107741683721542,12.116135293245314 -28.667291164398193,20.797775542736055 -43.66103884577751,29.956428992748258 c-11.127435386180878,6.48737952709198 -24.706678569316864,3.434495043754578 -34.32530915737152,-4.293118804693222 c4.054912894964218,-36.157600599527356 7.261123090982437,-72.88761703968049 18.67145937681198,-107.61417803764343 c3.86631229519844,-10.303485131263734 8.58132728934288,-22.896633625030518 20.085963875055313,-26.2357260286808 c20.934666574001312,-5.914963686466217 44.69834214448929,-2.7666765630245207 63.275501221418374,-15.836838257312776 c15.653849780559542,-10.685095691680907 22.349171072244644,-29.76562371253967 24.98957946896553,-47.892125332355505 c-33.57090675830841,3.9115082442760465 -65.53870841860771,16.21844881772995 -96.09200558066368,30.24263691306114 c-19.708762675523758,8.395432329177858 -42.81233614683151,6.105768966674805 -61.10659432411194,-4.865534645318984 c-2.829008996486664,-7.823016488552093 -4.903615593910217,-16.409254097938536 -2.4518077969551086,-24.613881146907808 c3.4891110956668854,-11.925330013036728 13.579243183135986,-20.320762342214586 23.952276170253754,-26.044920748472215 c20.085963875055313,-10.780498331785203 42.81233614683151,-14.882811856269836 64.97290661931038,-18.317306900024413 c24.32947736978531,-3.24368976354599 48.65895473957062,-6.964392727613449 73.1770327091217,-8.300029689073561 c21.78336927294731,-0.38161056041717534 44.03824004530907,-10.685095691680907 56.29727903008461,-29.3840131521225 c18.294258177280426,-26.903544509410857 28.007189065217972,-59.81745534539223 28.384390264749527,-92.44515826106073 c0.1886005997657776,-10.97130361199379 -1.6031050980091097,-24.041465306282042 -12.353339284658432,-29.574818432331085 c-18.86005997657776,-10.49429041147232 -41.020630449056625,-12.21153793334961 -62.049597322940826,-13.260966974496842 c-41.58643224835396,-1.1448316812515258 -83.73866629600525,0.6678184807300568 -124.09919464588165,11.829927372932435 c-9.052828788757324,3.434495043754578 -20.746065974235535,7.727613848447799 -23.38647437095642,18.126501619815826 c2.35750749707222,8.300029689073561 12.636240184307098,10.589693051576614 18.954360276460648,15.073617136478425 c-8.487026989459991,10.685095691680907 -22.254870772361755,14.596603935956956 -35.45691275596619,14.978214496374129 c-14.993747681379318,0.4770132005214691 -30.458996862173077,-0.572415840625763 -44.6040418446064,-6.105768966674805 c-10.467333287000656,-11.639122092723845 -12.164738684892654,-29.76562371253967 -5.940918892621994,-43.980617088079455 c6.318120092153549,-14.787409216165543 18.482858777046204,-26.044920748472215 30.93049836158752,-35.58518475890159 c30.176095962524414,-21.751801943778993 65.25580751895905,-34.91736627817154 100.1469184756279,-46.65189101099968 c13.013441383838654,-4.865534645318984 27.064186066389084,-3.529897683858872 40.64342924952507,-5.151742565631867 zM414.9192461618274,91.39649764898502 c50.26205983757973,-6.773587447404861 100.9956211745739,-2.6712739229202267 151.4462816119194,-1.1448316812515258 c25.74398186802864,2.0988580822944645 51.86516493558884,2.0988580822944645 76.76044410467148,9.540264010429382 c29.987495362758636,8.77704288959503 59.97499072551727,21.847204583883283 81.85266029834747,44.934643489122394 c10.9388347864151,12.49774585366249 20.651765674352646,28.716194671392444 18.577159076929092,46.07947517037391 c-2.734708696603775,15.74143561720848 -19.52016207575798,22.324217784404752 -33.47660645842552,23.564452105760573 c-22.443471372127533,1.5264422416687013 -45.829945743083954,0.09540264010429383 -66.67031201720238,-9.063250809907913 c8.015525490045547,-2.1942607223987576 16.125351279973984,-4.293118804693222 23.952276170253754,-7.25060064792633 c-9.241429388523102,-10.208082491159438 -23.952276170253754,-10.398887771368027 -36.399915754795074,-13.737980175018311 c-48.093152940273285,-8.395432329177858 -97.69511067867279,-10.017277210950851 -145.97686421871185,-1.8126501619815825 c-8.298426389694214,1.5264422416687013 -16.879753679037094,7.059795367717744 -18.482858777046204,15.932240897417067 c-3.0176095962524414,17.363280498981474 4.3378137946128845,33.86793723702431 10.467333287000656,49.60937285423279 c16.125351279973984,40.64152468442917 26.121183067560196,84.04972593188285 47.998852640390396,122.1153793334961 c14.80514708161354,26.521933948993684 36.68281665444374,47.70132005214691 56.3915793299675,70.40714839696884 c7.166822791099548,7.25060064792633 12.919141083955765,15.932240897417067 21.12326717376709,22.133412504196166 c10.373032987117767,-1.0494290411472322 17.91705697774887,-9.44486137032509 27.064186066389084,-13.642577534914018 c10.844534486532211,-2.8620792031288147 19.803062975406647,5.8195610463619225 26.309783667325974,13.356369614601135 c14.993747681379318,18.79432010054588 22.254870772361755,43.40820124745369 21.0289668738842,67.44966655373574 c-0.3772011995315552,23.75525738596916 -9.995831787586212,46.3656830906868 -23.669375270605087,65.35080847144127 c-40.73772954940796,-22.324217784404752 -76.19464230537415,-53.330075818300244 -107.40804156661034,-87.77042889595032 c-80.72105669975281,-89.6784816980362 -130.60591533780098,-203.7800392627716 -158.42450380325317,-320.83907867074015 c-5.563717693090439,-18.41270954012871 -5.563717693090439,-38.06565340161323 -3.583411395549774,-57.0507787823677 c2.4518077969551086,-16.886267298460005 12.730540484189987,-35.68058739900589 31.119098961353302,-38.16105604171753 zM348.5318350442737,314.7340781331368 c11.033135086297989,-6.296574246883392 24.14087677001953,-12.116135293245314 36.77711695432663,-7.536808568239213 c10.090132087469101,6.773587447404861 8.204126089811325,20.60697026252747 9.052828788757324,31.196663314104082 c1.0373032987117767,76.89452792406081 -3.3948107957839966,153.78905584812162 -6.506720691919327,230.6835837721825 c-10.18443238735199,5.342547845840453 -22.53777167201042,13.260966974496842 -34.23100885748863,7.536808568239213 c-8.769927889108658,-5.724158406257629 -8.204126089811325,-17.55408577919006 -8.769927889108658,-26.808141869306567 c-1.6974053978919983,-21.083983463048938 -1.1316035985946655,-42.26336956620216 -1.1316035985946655,-63.3473530292511 c2.0746065974235535,-36.53921115994453 1.2259038984775543,-73.17382495999337 2.6404083967208862,-109.7130361199379 c1.6031050980091097,-20.60697026252747 1.3202041983604431,-41.30934316515922 2.1689068973064423,-62.011716067790985 z" id="svg_1"/></g></svg>