<svg height="512" viewBox="0 0 128 128" width="512" xmlns="http://www.w3.org/2000/svg"><path d="m119.37 23.414h-58.042a5.324 5.324 0 0 1 -4.377-2.292l-2.581-3.722a7.46 7.46 0 0 0 -6.133-3.213h-35.672a5 5 0 0 0 -5 5v93.829a5 5 0 0 0 5 5h106.805a5 5 0 0 0 5-5v-84.6a5 5 0 0 0 -5-5.002z" fill="#e6e7e8"/><path d="m4.63 33h114.67a0 0 0 0 1 0 0v75.687a4 4 0 0 1 -4 4h-106.67a4 4 0 0 1 -4-4v-75.687a0 0 0 0 1 0 0z" fill="#0089ef"/><path d="m115.305 109.687h-106.675a4 4 0 0 1 -4-4v3a4 4 0 0 0 4 4h106.675a4 4 0 0 0 4-4v-3a4 4 0 0 1 -4 4z" fill="#fff"/><path d="m52.073 17.466-2.573-3.725a6.393 6.393 0 0 0 -5.255-2.753h-35.615a4 4 0 0 0 -4 4v18.012h114.675v-8.781a4 4 0 0 0 -4-4h-57.977a6.393 6.393 0 0 1 -5.255-2.753z" fill="#6dc9f7"/><circle cx="40.249" cy="22.416" fill="#fff" r="3.257"/><circle cx="28.417" cy="22.416" fill="#d4fbff" r="3.257"/><circle cx="16.586" cy="22.416" fill="#fa759e" r="3.257"/><path d="m37.335 86.568a16.162 16.162 0 0 1 -6.547-6.874 22.684 22.684 0 0 1 -2.288-10.476 22.519 22.519 0 0 1 2.288-10.448 16.2 16.2 0 0 1 6.547-6.847 19.873 19.873 0 0 1 9.93-2.4 19.829 19.829 0 0 1 12.335 3.928 4.125 4.125 0 0 1 1.146 1.309 3.663 3.663 0 0 1 .327 1.637 3.819 3.819 0 0 1 -.792 2.428 2.379 2.379 0 0 1 -1.936 1.009 4.211 4.211 0 0 1 -1.345-.191 5.183 5.183 0 0 1 -1.282-.682 18.368 18.368 0 0 0 -4.037-2.045 12.364 12.364 0 0 0 -3.983-.628q-5.238 0-7.884 3.246t-2.646 9.684q.003 12.982 10.532 12.982a11.531 11.531 0 0 0 3.819-.627 24.111 24.111 0 0 0 4.2-2.047 8 8 0 0 1 1.364-.682 3.792 3.792 0 0 1 1.255-.191 2.38 2.38 0 0 1 1.936 1.01 3.823 3.823 0 0 1 .792 2.428 3.578 3.578 0 0 1 -.355 1.664 4.03 4.03 0 0 1 -1.111 1.285 19.828 19.828 0 0 1 -12.33 3.928 19.872 19.872 0 0 1 -9.935-2.4z" fill="#fa759e"/><path d="m66.523 69.191a4.955 4.955 0 0 1 0-6.711 4.813 4.813 0 0 1 6.656 0 4.952 4.952 0 0 1 0 6.711 4.813 4.813 0 0 1 -6.656 0zm0 18.277a4.955 4.955 0 0 1 0-6.711 4.81 4.81 0 0 1 6.656 0 4.952 4.952 0 0 1 0 6.711 4.81 4.81 0 0 1 -6.656 0z" fill="#fa759e"/><path d="m76.616 51a4.644 4.644 0 0 1 -.216-1.15 2.719 2.719 0 0 1 .98-2.15 3.4 3.4 0 0 1 2.291-.845 3.167 3.167 0 0 1 1.856.572 3.287 3.287 0 0 1 1.2 1.719l12.548 39.277a4.183 4.183 0 0 1 .164 1.091 2.776 2.776 0 0 1 -.983 2.21 3.4 3.4 0 0 1 -2.29.845 3.158 3.158 0 0 1 -1.856-.569 3.282 3.282 0 0 1 -1.2-1.718z" fill="#fa759e"/><g fill="#3a2c60"><path d="m104.3 32h-9.332a1 1 0 0 0 0 2h9.332a1 1 0 1 0 0-2z"/><path d="m115.305 19.219h-57.977a5.39 5.39 0 0 1 -4.428-2.319l-2.579-3.726a7.392 7.392 0 0 0 -6.076-3.183h-35.615a5.006 5.006 0 0 0 -5 5v93.7a5.006 5.006 0 0 0 5 5h106.675a5.006 5.006 0 0 0 5-5v-84.472a5.006 5.006 0 0 0 -5-5zm0 92.468h-106.675a3 3 0 0 1 -3-3v-74.687h85a1 1 0 0 0 0-2h-85v-17.012a3 3 0 0 1 3-3h35.611a5.389 5.389 0 0 1 4.431 2.322l2.579 3.725a7.394 7.394 0 0 0 6.077 3.184h57.977a3 3 0 0 1 3 3v7.781h-9.671a1 1 0 0 0 0 2h9.671v74.687a3 3 0 0 1 -3 3z"/><path d="m47.7 57.288a11.406 11.406 0 0 1 3.662.575 17.384 17.384 0 0 1 3.787 1.92 6.176 6.176 0 0 0 1.535.808 5.238 5.238 0 0 0 1.655.244 3.385 3.385 0 0 0 2.723-1.393 4.807 4.807 0 0 0 1-3.045 4.65 4.65 0 0 0 -.433-2.084 5.07 5.07 0 0 0 -1.429-1.659 20.9 20.9 0 0 0 -12.934-4.131 20.947 20.947 0 0 0 -10.421 2.529 17.252 17.252 0 0 0 -6.945 7.26 23.613 23.613 0 0 0 -2.4 10.906 23.776 23.776 0 0 0 2.4 10.931 17.208 17.208 0 0 0 6.946 7.29 20.948 20.948 0 0 0 10.422 2.529 20.906 20.906 0 0 0 12.947-4.141 5.025 5.025 0 0 0 1.385-1.608 4.562 4.562 0 0 0 .468-2.125 4.813 4.813 0 0 0 -1-3.045 3.387 3.387 0 0 0 -2.723-1.393 4.806 4.806 0 0 0 -1.588.248 8.892 8.892 0 0 0 -1.54.765 23.292 23.292 0 0 1 -4.021 1.962 10.574 10.574 0 0 1 -3.49.572c-6.413 0-9.53-3.92-9.53-11.985 0-4.035.815-7.081 2.421-9.052 1.574-1.937 3.903-2.878 7.103-2.878zm-8.658 1.612c-1.905 2.338-2.871 5.809-2.871 10.316 0 11.558 6.27 13.985 11.53 13.985a12.577 12.577 0 0 0 4.149-.683 25.269 25.269 0 0 0 4.384-2.132 7.1 7.1 0 0 1 1.181-.6 2.839 2.839 0 0 1 .925-.135 1.39 1.39 0 0 1 1.149.626 2.83 2.83 0 0 1 .579 1.812 2.632 2.632 0 0 1 -.241 1.2 3.065 3.065 0 0 1 -.836.947 18.939 18.939 0 0 1 -11.726 3.725 18.96 18.96 0 0 1 -9.438-2.261 15.24 15.24 0 0 1 -6.148-6.459 21.793 21.793 0 0 1 -2.179-10.023 21.641 21.641 0 0 1 2.181-9.99 15.283 15.283 0 0 1 6.149-6.434 18.982 18.982 0 0 1 9.439-2.271 18.927 18.927 0 0 1 11.7 3.709 3.169 3.169 0 0 1 .876.975 2.7 2.7 0 0 1 .222 1.19 2.822 2.822 0 0 1 -.579 1.812 1.386 1.386 0 0 1 -1.149.626 3.241 3.241 0 0 1 -1.022-.141 4.328 4.328 0 0 1 -1.052-.571 19.466 19.466 0 0 0 -4.265-2.155 13.429 13.429 0 0 0 -4.3-.68c-3.789 0-6.7 1.212-8.658 3.612z"/><path d="m69.851 60.144a5.442 5.442 0 0 0 -4.042 1.637 5.952 5.952 0 0 0 0 8.11 5.811 5.811 0 0 0 8.084 0 5.949 5.949 0 0 0 0-8.11 5.442 5.442 0 0 0 -4.042-1.637zm2.614 8.347a3.815 3.815 0 0 1 -5.227 0 3.955 3.955 0 0 1 0-5.311 3.815 3.815 0 0 1 5.227 0 3.955 3.955 0 0 1 0 5.311z"/><path d="m69.851 78.42a5.448 5.448 0 0 0 -4.043 1.638 5.955 5.955 0 0 0 0 8.11 5.809 5.809 0 0 0 8.084 0 5.951 5.951 0 0 0 0-8.111 5.446 5.446 0 0 0 -4.041-1.637zm2.614 8.349a3.815 3.815 0 0 1 -5.227 0 3.956 3.956 0 0 1 0-5.312 3.812 3.812 0 0 1 5.226 0 3.956 3.956 0 0 1 0 5.313z"/><path d="m83.675 48.823a4.278 4.278 0 0 0 -1.575-2.223 4.156 4.156 0 0 0 -2.429-.753 4.4 4.4 0 0 0 -2.944 1.088 3.738 3.738 0 0 0 -1.327 2.915 5.407 5.407 0 0 0 .256 1.419l.009.03 12.5 39.294a4.262 4.262 0 0 0 1.576 2.222 4.151 4.151 0 0 0 2.428.754 4.4 4.4 0 0 0 2.944-1.087 3.8 3.8 0 0 0 1.33-2.968 5.239 5.239 0 0 0 -.211-1.395zm10.13 42.142a2.414 2.414 0 0 1 -1.64.6 2.166 2.166 0 0 1 -1.281-.392 2.278 2.278 0 0 1 -.821-1.2l-12.489-39.265a3.661 3.661 0 0 1 -.176-.858 1.728 1.728 0 0 1 .634-1.4 2.414 2.414 0 0 1 1.639-.6 2.16 2.16 0 0 1 1.282.392 2.281 2.281 0 0 1 .821 1.2l12.537 39.245a3.188 3.188 0 0 1 .128.827 1.784 1.784 0 0 1 -.634 1.451z"/></g></svg>